# xmcd CD database file
# Copyright (C) 1993-1998 Ti Kan
#
# Track frame offsets:
#    150
#    20502
#    34026
#    44731
#    62345
#    89660
#    106724
#    125001
#    139653
#    153755
#    171532
#    213684
#    241811
#    297763
#
# Disc length: 4400 seconds
#
# Revision: 2
# Processed by: cddbd v1.5.1PL2 Copyright (c) Steve Scherf et al.
# Submitted via: MyCDplayer 5.0.0b  (wjohn@fix.net)
#
DISCID=c6112e0e
DTITLE=Stevie Ray Vaughan And Double Trouble /
DTITLE=Accolades - Disc 1
DYEAR=1900
DGENRE=
TTITLE0=Dirty Pool
TTITLE1=Day I'm Gone
TTITLE2=Love Struck Baby
TTITLE3=You Can Have My Husband w/Lou Ann Barton
TTITLE4=Pride And Joy
TTITLE5=Tee Ni Nee Ni Noo w/ Lou Ann Barton
TTITLE6=Scratch My Back w/ Lou Ann Barton
TTITLE7=My Baby's Gone
TTITLE8=Shake For Me
TTITLE9=Stevie's Blues
TTITLE10=Tell Me
TTITLE11=Tin Pan Alley
TTITLE12=Ooh Ooh Ooh
TTITLE13=Slide Thing
EXTD=
EXTT0=
EXTT1=
EXTT2=
EXTT3=
EXTT4=
EXTT5=
EXTT6=
EXTT7=
EXTT8=
EXTT9=
EXTT10=
EXTT11=
EXTT12=
EXTT13=
PLAYORDER=
